<svg width="18" height="18" viewBox="0 0 18 18" fill="none" xmlns="http://www.w3.org/2000/svg">
<path d="M7.54242 12.1143H2.94202" stroke="#101010" stroke-width="1.31425" stroke-linecap="round" stroke-linejoin="round"/>
<path d="M9.59436 5.03814H14.1948" stroke="#101010" stroke-width="1.31425" stroke-linecap="round" stroke-linejoin="round"/>
<path fill-rule="evenodd" clip-rule="evenodd" d="M6.37138 4.99825C6.37138 4.05224 5.59878 3.28516 4.64596 3.28516C3.69314 3.28516 2.92053 4.05224 2.92053 4.99825C2.92053 5.94426 3.69314 6.71134 4.64596 6.71134C5.59878 6.71134 6.37138 5.94426 6.37138 4.99825Z" stroke="#101010" stroke-width="1.31425" stroke-linecap="round" stroke-linejoin="round"/>
<path fill-rule="evenodd" clip-rule="evenodd" d="M14.6027 12.0861C14.6027 11.1401 13.8307 10.373 12.8779 10.373C11.9245 10.373 11.1519 11.1401 11.1519 12.0861C11.1519 13.0322 11.9245 13.7992 12.8779 13.7992C13.8307 13.7992 14.6027 13.0322 14.6027 12.0861Z" stroke="#101010" stroke-width="1.31425" stroke-linecap="round" stroke-linejoin="round"/>
</svg>
