<svg width="24" height="24" viewBox="0 0 24 24" fill="none" xmlns="http://www.w3.org/2000/svg">
<path d="M16.4404 3.59998C19.2317 3.60021 21.4999 5.87384 21.5 8.68982C21.5 9.82544 21.3185 10.8737 21.0039 11.8461L21.0029 11.849C20.2487 14.2357 18.7033 16.1595 17.0352 17.5931C15.3649 19.0286 13.6004 19.9479 12.459 20.3363L12.4531 20.3383C12.3532 20.3734 12.189 20.3998 12 20.3998C11.811 20.3998 11.6468 20.3734 11.5469 20.3383L11.541 20.3363C10.3996 19.9479 8.63512 19.0286 6.96484 17.5931C5.29669 16.1595 3.75127 14.2357 2.99707 11.849L2.99609 11.8461L2.88379 11.4779C2.63838 10.6104 2.5 9.68347 2.5 8.68982C2.50008 5.87384 4.76829 3.60021 7.55957 3.59998C9.20459 3.59998 10.6795 4.39957 11.5996 5.62927L12 6.16443L12.4004 5.62927C13.3205 4.39957 14.7954 3.59998 16.4404 3.59998Z" fill="#5C1A29" stroke="white"/>
</svg>
